<svg xmlns="http://www.w3.org/2000/svg" version="1.1" xmlns:xlink="http://www.w3.org/1999/xlink" xmlns:svgjs="http://svgjs.dev/svgjs" width="1440" height="560" preserveAspectRatio="none" viewBox="0 0 1440 560"><g mask="url(&quot;#SvgjsMask1116&quot;)" fill="none"><rect width="1440" height="560" x="0" y="0" fill="url(&quot;#SvgjsLinearGradient1117&quot;)"></rect><path d="M243 256L242 426" stroke-width="10" stroke="url(&quot;#SvgjsLinearGradient1118&quot;)" stroke-linecap="round" class="Down"></path><path d="M501 500L500 745" stroke-width="8" stroke="url(&quot;#SvgjsLinearGradient1119&quot;)" stroke-linecap="round" class="Up"></path><path d="M486 450L485 742" stroke-width="6" stroke="url(&quot;#SvgjsLinearGradient1119&quot;)" stroke-linecap="round" class="Up"></path><path d="M1004 483L1003 793" stroke-width="6" stroke="url(&quot;#SvgjsLinearGradient1118&quot;)" stroke-linecap="round" class="Down"></path><path d="M1074 147L1073 345" stroke-width="6" stroke="url(&quot;#SvgjsLinearGradient1119&quot;)" stroke-linecap="round" class="Up"></path><path d="M614 271L613 449" stroke-width="6" stroke="url(&quot;#SvgjsLinearGradient1119&quot;)" stroke-linecap="round" class="Up"></path><path d="M1376 67L1375 474" stroke-width="6" stroke="url(&quot;#SvgjsLinearGradient1119&quot;)" stroke-linecap="round" class="Up"></path><path d="M1320 308L1319 12" stroke-width="8" stroke="url(&quot;#SvgjsLinearGradient1119&quot;)" stroke-linecap="round" class="Up"></path><path d="M929 530L928 709" stroke-width="10" stroke="url(&quot;#SvgjsLinearGradient1119&quot;)" stroke-linecap="round" class="Up"></path><path d="M583 45L582 378" stroke-width="10" stroke="url(&quot;#SvgjsLinearGradient1119&quot;)" stroke-linecap="round" class="Up"></path><path d="M920 376L919 688" stroke-width="10" stroke="url(&quot;#SvgjsLinearGradient1118&quot;)" stroke-linecap="round" class="Down"></path><path d="M1103 93L1102 -286" stroke-width="8" stroke="url(&quot;#SvgjsLinearGradient1118&quot;)" stroke-linecap="round" class="Down"></path><path d="M1242 445L1241 765" stroke-width="10" stroke="url(&quot;#SvgjsLinearGradient1118&quot;)" stroke-linecap="round" class="Down"></path><path d="M270 246L269 -112" stroke-width="10" stroke="url(&quot;#SvgjsLinearGradient1119&quot;)" stroke-linecap="round" class="Up"></path><path d="M1129 485L1128 712" stroke-width="8" stroke="url(&quot;#SvgjsLinearGradient1119&quot;)" stroke-linecap="round" class="Up"></path><path d="M82 485L81 870" stroke-width="6" stroke="url(&quot;#SvgjsLinearGradient1118&quot;)" stroke-linecap="round" class="Down"></path><path d="M1125 270L1124 -111" stroke-width="8" stroke="url(&quot;#SvgjsLinearGradient1119&quot;)" stroke-linecap="round" class="Up"></path><path d="M748 486L747 70" stroke-width="8" stroke="url(&quot;#SvgjsLinearGradient1119&quot;)" stroke-linecap="round" class="Up"></path><path d="M574 483L573 886" stroke-width="10" stroke="url(&quot;#SvgjsLinearGradient1118&quot;)" stroke-linecap="round" class="Down"></path><path d="M1339 439L1338 593" stroke-width="8" stroke="url(&quot;#SvgjsLinearGradient1119&quot;)" stroke-linecap="round" class="Up"></path><path d="M495 91L494 366" stroke-width="8" stroke="url(&quot;#SvgjsLinearGradient1119&quot;)" stroke-linecap="round" class="Up"></path><path d="M716 503L715 263" stroke-width="10" stroke="url(&quot;#SvgjsLinearGradient1118&quot;)" stroke-linecap="round" class="Down"></path><path d="M275 81L274 472" stroke-width="10" stroke="url(&quot;#SvgjsLinearGradient1119&quot;)" stroke-linecap="round" class="Up"></path><path d="M1035 224L1034 71" stroke-width="6" stroke="url(&quot;#SvgjsLinearGradient1118&quot;)" stroke-linecap="round" class="Down"></path><path d="M495 26L494 -285" stroke-width="6" stroke="url(&quot;#SvgjsLinearGradient1119&quot;)" stroke-linecap="round" class="Up"></path><path d="M902 189L901 -46" stroke-width="10" stroke="url(&quot;#SvgjsLinearGradient1119&quot;)" stroke-linecap="round" class="Up"></path><path d="M958 463L957 274" stroke-width="6" stroke="url(&quot;#SvgjsLinearGradient1119&quot;)" stroke-linecap="round" class="Up"></path><path d="M558 28L557 -293" stroke-width="8" stroke="url(&quot;#SvgjsLinearGradient1119&quot;)" stroke-linecap="round" class="Up"></path><path d="M228 515L227 853" stroke-width="6" stroke="url(&quot;#SvgjsLinearGradient1119&quot;)" stroke-linecap="round" class="Up"></path><path d="M1189 479L1188 213" stroke-width="8" stroke="url(&quot;#SvgjsLinearGradient1118&quot;)" stroke-linecap="round" class="Down"></path><path d="M283 244L282 428" stroke-width="6" stroke="url(&quot;#SvgjsLinearGradient1119&quot;)" stroke-linecap="round" class="Up"></path><path d="M1123 494L1122 123" stroke-width="8" stroke="url(&quot;#SvgjsLinearGradient1118&quot;)" stroke-linecap="round" class="Down"></path><path d="M152 11L151 353" stroke-width="6" stroke="url(&quot;#SvgjsLinearGradient1118&quot;)" stroke-linecap="round" class="Down"></path><path d="M262 132L261 -274" stroke-width="6" stroke="url(&quot;#SvgjsLinearGradient1119&quot;)" stroke-linecap="round" class="Up"></path><path d="M769 441L768 591" stroke-width="10" stroke="url(&quot;#SvgjsLinearGradient1118&quot;)" stroke-linecap="round" class="Down"></path><path d="M768 309L767 453" stroke-width="10" stroke="url(&quot;#SvgjsLinearGradient1119&quot;)" stroke-linecap="round" class="Up"></path></g><defs><mask id="SvgjsMask1116"><rect width="1440" height="560" fill="#ffffff"></rect></mask><linearGradient x1="15.28%" y1="-39.29%" x2="84.72%" y2="139.29%" gradientUnits="userSpaceOnUse" id="SvgjsLinearGradient1117"><stop stop-color="#0e2a47" offset="0"></stop><stop stop-color="rgba(51, 0, 111, 1)" offset="1"></stop></linearGradient><linearGradient x1="0%" y1="0%" x2="0%" y2="100%" id="SvgjsLinearGradient1118"><stop stop-color="rgba(230, 230, 250, 0)" offset="0"></stop><stop stop-color="rgba(230, 230, 250, 1)" offset="1"></stop></linearGradient><linearGradient x1="0%" y1="100%" x2="0%" y2="0%" id="SvgjsLinearGradient1119"><stop stop-color="rgba(230, 230, 250, 0)" offset="0"></stop><stop stop-color="rgba(230, 230, 250, 1)" offset="1"></stop></linearGradient></defs></svg>